<svg preserveAspectRatio="none" overflow="visible" style="display: block;" width="14" height="14" viewBox="0 0 14 14" fill="none" xmlns="http://www.w3.org/2000/svg">
<g id="Frame">
<path id="Vector" d="M1.20199 6.7955C1.15337 6.92647 1.15337 7.07053 1.20199 7.2015C1.67548 8.34959 2.47921 9.33123 3.51127 10.022C4.54334 10.7127 5.75726 11.0815 6.99916 11.0815C8.24105 11.0815 9.45497 10.7127 10.487 10.022C11.5191 9.33123 12.3228 8.34959 12.7963 7.2015C12.8449 7.07053 12.8449 6.92647 12.7963 6.7955C12.3228 5.64742 11.5191 4.66577 10.487 3.97503C9.45497 3.28428 8.24105 2.91553 6.99916 2.91553C5.75726 2.91553 4.54334 3.28428 3.51127 3.97503C2.47921 4.66577 1.67548 5.64742 1.20199 6.7955Z" stroke="#BF337A" stroke-width="1.16667" stroke-linecap="round" stroke-linejoin="round"/>
<path id="Vector_2" d="M7 8.75C7.9665 8.75 8.75 7.9665 8.75 7C8.75 6.0335 7.9665 5.25 7 5.25C6.0335 5.25 5.25 6.0335 5.25 7C5.25 7.9665 6.0335 8.75 7 8.75Z" stroke="#BF337A" stroke-width="1.16667" stroke-linecap="round" stroke-linejoin="round"/>
</g>
</svg>
